<?xml version="1.0" standalone="no"?>
<!DOCTYPE svg PUBLIC "-//W3C//DTD SVG 20010904//EN"
 "http://www.w3.org/TR/2001/REC-SVG-20010904/DTD/svg10.dtd">
<svg version="1.0" xmlns="http://www.w3.org/2000/svg"
 width="500.000000pt" height="500.000000pt" viewBox="0 0 500.000000 500.000000"
 preserveAspectRatio="xMidYMid meet">
<metadata>
Created by potrace 1.14, written by Peter Selinger 2001-2017
</metadata>
<g transform="translate(0.000000,500.000000) scale(0.100000,-0.100000)"
fill="#000000" stroke="none">
<path d="M3345 3237 c-11 -7 -22 -15 -25 -18 -3 -3 -21 -11 -40 -19 -19 -7
-85 -37 -147 -67 -62 -29 -137 -64 -168 -77 l-55 -25 -52 23 c-180 79 -441 77
-625 -5 l-41 -19 -79 36 c-88 40 -113 51 -267 123 -60 28 -111 50 -112 48 -3
-3 44 -134 66 -182 5 -11 18 -47 30 -80 11 -33 24 -69 29 -80 33 -75 48 -124
41 -131 -8 -8 -62 -111 -66 -124 -1 -3 -5 -20 -9 -37 -4 -18 -13 -33 -19 -33
-6 0 -30 17 -53 39 -24 21 -59 51 -79 66 -19 15 -48 39 -63 54 -15 14 -40 35
-55 46 -16 11 -38 30 -50 41 -18 19 -76 68 -210 177 -21 18 -45 38 -52 45 -15
14 -44 16 -44 2 0 -5 -8 -17 -18 -27 -10 -10 -42 -47 -72 -83 -55 -65 -97
-113 -137 -157 -11 -13 -35 -41 -53 -63 -17 -21 -41 -49 -52 -62 -11 -13 -38
-45 -61 -72 -23 -28 -51 -60 -62 -72 -11 -12 -34 -40 -52 -61 -17 -21 -41 -49
-53 -63 -12 -14 -40 -47 -63 -74 -67 -79 -178 -210 -193 -226 -8 -8 -36 -42
-64 -75 -47 -57 -58 -75 -44 -75 18 0 126 69 176 112 84 72 156 101 243 101
64 -1 150 -21 179 -43 56 -44 97 -87 102 -106 3 -13 10 -24 14 -24 5 0 12 -9
15 -20 6 -18 28 -30 23 -12 -6 21 17 91 40 122 68 91 174 123 281 85 79 -27
143 -100 150 -167 1 -5 5 -8 9 -8 4 0 9 15 11 33 8 88 16 107 63 147 48 41
110 67 156 64 17 -1 43 -2 57 -3 18 -1 26 -8 31 -28 28 -129 141 -306 244
-384 25 -19 51 -40 59 -47 28 -27 177 -95 236 -108 111 -25 282 -25 375 -1
151 40 309 142 404 261 52 66 106 166 126 234 8 25 20 43 29 43 91 9 148 -6
204 -52 41 -34 67 -77 74 -123 5 -35 23 -60 23 -33 0 22 37 87 64 111 62 55
182 72 260 38 69 -31 127 -103 140 -173 3 -13 5 -26 6 -29 0 -3 8 8 17 24 56
104 159 168 278 172 67 3 161 -15 174 -34 4 -4 13 -11 22 -17 9 -5 36 -23 60
-40 67 -45 169 -96 169 -85 0 8 -183 239 -243 306 -7 8 -21 25 -32 39 -11 14
-28 36 -39 48 -10 12 -30 38 -45 57 -14 19 -33 42 -41 50 -12 12 -73 86 -200
244 -8 10 -24 29 -35 41 -11 13 -54 65 -95 116 -41 51 -89 108 -106 127 l-31
34 -96 -68 c-53 -38 -126 -89 -162 -114 -97 -66 -258 -179 -270 -188 -22 -18
-90 -62 -95 -62 -3 0 -11 19 -19 43 -7 23 -21 58 -31 77 -42 78 -42 72 1 203
36 110 68 196 104 282 31 74 30 85 -10 62z"/>
</g>
</svg>
