<?xml version="1.0" standalone="no"?>
<!DOCTYPE svg PUBLIC "-//W3C//DTD SVG 20010904//EN"
 "http://www.w3.org/TR/2001/REC-SVG-20010904/DTD/svg10.dtd">
<svg version="1.0"
    xmlns="http://www.w3.org/2000/svg" width="500.000000pt" height="500.000000pt" viewBox="0 0 500.000000 500.000000" preserveAspectRatio="xMidYMid meet">
    <g transform="translate(0.000000,500.000000) scale(0.100000,-0.100000)" fill="#000000" stroke="none">
        <path d="M3310 3215 c-25 -13 -123 -60 -219 -105 l-174 -81 -48 21 c-185 79
                -444 79 -629 -1 l-48 -21 -79 35 c-43 19 -116 53 -163 75 -159 74 -202 93
                -206 89 -3 -2 33 -105 79 -228 l84 -224 -34 -64 c-18 -35 -38 -83 -44 -107 -6
                -24 -14 -44 -16 -44 -3 0 -70 55 -150 123 -343 288 -438 367 -445 364 -4 -1
                -43 -43 -85 -93 -43 -51 -177 -207 -298 -349 -121 -141 -240 -281 -265 -310
                -205 -242 -300 -356 -300 -360 0 -17 142 72 200 125 60 55 133 83 220 84 41 0
                94 -5 117 -12 69 -21 148 -91 199 -178 10 -16 13 -12 26 32 32 109 118 174
                231 174 100 0 178 -46 221 -131 27 -56 26 -57 41 36 16 97 180 183 278 146 18
                -7 26 -20 30 -46 10 -59 82 -194 142 -266 259 -313 707 -366 1031 -124 116 87
                211 214 255 342 22 65 30 73 80 73 106 0 205 -67 229 -157 19 -69 19 -69 48
                -11 18 34 42 64 70 83 39 26 53 30 125 33 70 2 89 -1 127 -21 49 -26 107 -93
                116 -135 12 -56 14 -56 48 -6 63 93 162 144 281 144 79 0 130 -18 212 -75 66
                -47 182 -109 189 -103 2 2 -24 38 -58 79 -33 41 -145 178 -248 304 -365 447
                -475 581 -515 627 l-40 46 -95 -66 c-52 -36 -190 -132 -307 -214 -116 -81
                -216 -148 -222 -148 -6 0 -14 12 -17 28 -4 15 -22 59 -41 99 l-35 71 42 129
                c23 70 60 172 81 225 53 132 53 133 -21 93z" />
    </g>
</svg>
