<svg xmlns="http://www.w3.org/2000/svg" version="1.1"
  xmlns:xlink="http://www.w3.org/1999/xlink"
  xmlns:svgjs="http://svgjs.dev/svgjs" viewBox="0 0 800 800" opacity="1">
  <g stroke-width="6.5" stroke="#203a6cff" fill="none">
    <rect width="66.66666666666667" height="16.157894736842103" x="-33.333333333333336" y="-8.078947368421051" stroke="none" fill="#4945ffff" rx="8.078947368421051" transform="rotate(45, 0, 0)"></rect>
    <rect width="16.157894736842103" height="66.66666666666667" x="-8.078947368421051" y="-33.333333333333336" stroke="none" fill="#4945ffff" rx="8.078947368421051" transform="rotate(45, 0, 0)"></rect>
    <rect width="66.66666666666667" height="16.157894736842103" x="100" y="-8.078947368421051" stroke="none" fill="#203a6cff" rx="8.078947368421051" transform="rotate(45, 133.33333333333334, 0)"></rect>
    <rect width="16.157894736842103" height="66.66666666666667" x="125.25438596491229" y="-33.333333333333336" stroke="none" fill="#203a6cff" rx="8.078947368421051" transform="rotate(45, 133.33333333333334, 0)"></rect>
    <rect width="66.66666666666667" height="16.157894736842103" x="233.33333333333334" y="-8.078947368421051" stroke="none" fill="#4945ffff" rx="8.078947368421051" transform="rotate(45, 266.6666666666667, 0)"></rect>
    <rect width="16.157894736842103" height="66.66666666666667" x="258.58771929824564" y="-33.333333333333336" stroke="none" fill="#4945ffff" rx="8.078947368421051" transform="rotate(45, 266.6666666666667, 0)"></rect>
    <rect width="66.66666666666667" height="16.157894736842103" x="366.6666666666667" y="-8.078947368421051" stroke="none" fill="#203a6cff" rx="8.078947368421051" transform="rotate(45, 400, 0)"></rect>
    <rect width="16.157894736842103" height="66.66666666666667" x="391.92105263157896" y="-33.333333333333336" stroke="none" fill="#203a6cff" rx="8.078947368421051" transform="rotate(45, 400, 0)"></rect>
    <rect width="66.66666666666667" height="16.157894736842103" x="500.00000000000006" y="-8.078947368421051" stroke="none" fill="#4945ffff" rx="8.078947368421051" transform="rotate(45, 533.3333333333334, 0)"></rect>
    <rect width="16.157894736842103" height="66.66666666666667" x="525.2543859649123" y="-33.333333333333336" stroke="none" fill="#4945ffff" rx="8.078947368421051" transform="rotate(45, 533.3333333333334, 0)"></rect>
    <rect width="66.66666666666667" height="16.157894736842103" x="633.3333333333334" y="-8.078947368421051" stroke="none" fill="#203a6cff" rx="8.078947368421051" transform="rotate(45, 666.6666666666667, 0)"></rect>
    <rect width="16.157894736842103" height="66.66666666666667" x="658.5877192982457" y="-33.333333333333336" stroke="none" fill="#203a6cff" rx="8.078947368421051" transform="rotate(45, 666.6666666666667, 0)"></rect>
    <rect width="66.66666666666667" height="16.157894736842103" x="766.6666666666667" y="-8.078947368421051" stroke="none" fill="#4945ffff" rx="8.078947368421051" transform="rotate(45, 800.0000000000001, 0)"></rect>
    <rect width="16.157894736842103" height="66.66666666666667" x="791.9210526315791" y="-33.333333333333336" stroke="none" fill="#4945ffff" rx="8.078947368421051" transform="rotate(45, 800.0000000000001, 0)"></rect>
    <rect width="66.66666666666667" height="16.157894736842103" x="-33.333333333333336" y="125.25438596491229" stroke="none" fill="#203a6cff" rx="8.078947368421051" transform="rotate(45, 0, 133.33333333333334)"></rect>
    <rect width="16.157894736842103" height="66.66666666666667" x="-8.078947368421051" y="100" stroke="none" fill="#203a6cff" rx="8.078947368421051" transform="rotate(45, 0, 133.33333333333334)"></rect>
    <rect width="66.66666666666667" height="16.157894736842103" x="100" y="125.25438596491229" stroke="none" fill="#4945ffff" rx="8.078947368421051" transform="rotate(45, 133.33333333333334, 133.33333333333334)"></rect>
    <rect width="16.157894736842103" height="66.66666666666667" x="125.25438596491229" y="100" stroke="none" fill="#4945ffff" rx="8.078947368421051" transform="rotate(45, 133.33333333333334, 133.33333333333334)"></rect>
    <rect width="66.66666666666667" height="16.157894736842103" x="233.33333333333334" y="125.25438596491229" stroke="none" fill="#203a6cff" rx="8.078947368421051" transform="rotate(45, 266.6666666666667, 133.33333333333334)"></rect>
    <rect width="16.157894736842103" height="66.66666666666667" x="258.58771929824564" y="100" stroke="none" fill="#203a6cff" rx="8.078947368421051" transform="rotate(45, 266.6666666666667, 133.33333333333334)"></rect>
    <rect width="66.66666666666667" height="16.157894736842103" x="366.6666666666667" y="125.25438596491229" stroke="none" fill="#4945ffff" rx="8.078947368421051" transform="rotate(45, 400, 133.33333333333334)"></rect>
    <rect width="16.157894736842103" height="66.66666666666667" x="391.92105263157896" y="100" stroke="none" fill="#4945ffff" rx="8.078947368421051" transform="rotate(45, 400, 133.33333333333334)"></rect>
    <rect width="66.66666666666667" height="16.157894736842103" x="500.00000000000006" y="125.25438596491229" stroke="none" fill="#203a6cff" rx="8.078947368421051" transform="rotate(45, 533.3333333333334, 133.33333333333334)"></rect>
    <rect width="16.157894736842103" height="66.66666666666667" x="525.2543859649123" y="100" stroke="none" fill="#203a6cff" rx="8.078947368421051" transform="rotate(45, 533.3333333333334, 133.33333333333334)"></rect>
    <rect width="66.66666666666667" height="16.157894736842103" x="633.3333333333334" y="125.25438596491229" stroke="none" fill="#4945ffff" rx="8.078947368421051" transform="rotate(45, 666.6666666666667, 133.33333333333334)"></rect>
    <rect width="16.157894736842103" height="66.66666666666667" x="658.5877192982457" y="100" stroke="none" fill="#4945ffff" rx="8.078947368421051" transform="rotate(45, 666.6666666666667, 133.33333333333334)"></rect>
    <rect width="66.66666666666667" height="16.157894736842103" x="766.6666666666667" y="125.25438596491229" stroke="none" fill="#203a6cff" rx="8.078947368421051" transform="rotate(45, 800.0000000000001, 133.33333333333334)"></rect>
    <rect width="16.157894736842103" height="66.66666666666667" x="791.9210526315791" y="100" stroke="none" fill="#203a6cff" rx="8.078947368421051" transform="rotate(45, 800.0000000000001, 133.33333333333334)"></rect>
    <rect width="66.66666666666667" height="16.157894736842103" x="-33.333333333333336" y="258.58771929824564" stroke="none" fill="#4945ffff" rx="8.078947368421051" transform="rotate(45, 0, 266.6666666666667)"></rect>
    <rect width="16.157894736842103" height="66.66666666666667" x="-8.078947368421051" y="233.33333333333334" stroke="none" fill="#4945ffff" rx="8.078947368421051" transform="rotate(45, 0, 266.6666666666667)"></rect>
    <rect width="66.66666666666667" height="16.157894736842103" x="100" y="258.58771929824564" stroke="none" fill="#203a6cff" rx="8.078947368421051" transform="rotate(45, 133.33333333333334, 266.6666666666667)"></rect>
    <rect width="16.157894736842103" height="66.66666666666667" x="125.25438596491229" y="233.33333333333334" stroke="none" fill="#203a6cff" rx="8.078947368421051" transform="rotate(45, 133.33333333333334, 266.6666666666667)"></rect>
    <rect width="66.66666666666667" height="16.157894736842103" x="233.33333333333334" y="258.58771929824564" stroke="none" fill="#4945ffff" rx="8.078947368421051" transform="rotate(45, 266.6666666666667, 266.6666666666667)"></rect>
    <rect width="16.157894736842103" height="66.66666666666667" x="258.58771929824564" y="233.33333333333334" stroke="none" fill="#4945ffff" rx="8.078947368421051" transform="rotate(45, 266.6666666666667, 266.6666666666667)"></rect>
    <rect width="66.66666666666667" height="16.157894736842103" x="366.6666666666667" y="258.58771929824564" stroke="none" fill="#203a6cff" rx="8.078947368421051" transform="rotate(45, 400, 266.6666666666667)"></rect>
    <rect width="16.157894736842103" height="66.66666666666667" x="391.92105263157896" y="233.33333333333334" stroke="none" fill="#203a6cff" rx="8.078947368421051" transform="rotate(45, 400, 266.6666666666667)"></rect>
    <rect width="66.66666666666667" height="16.157894736842103" x="500.00000000000006" y="258.58771929824564" stroke="none" fill="#4945ffff" rx="8.078947368421051" transform="rotate(45, 533.3333333333334, 266.6666666666667)"></rect>
    <rect width="16.157894736842103" height="66.66666666666667" x="525.2543859649123" y="233.33333333333334" stroke="none" fill="#4945ffff" rx="8.078947368421051" transform="rotate(45, 533.3333333333334, 266.6666666666667)"></rect>
    <rect width="66.66666666666667" height="16.157894736842103" x="633.3333333333334" y="258.58771929824564" stroke="none" fill="#203a6cff" rx="8.078947368421051" transform="rotate(45, 666.6666666666667, 266.6666666666667)"></rect>
    <rect width="16.157894736842103" height="66.66666666666667" x="658.5877192982457" y="233.33333333333334" stroke="none" fill="#203a6cff" rx="8.078947368421051" transform="rotate(45, 666.6666666666667, 266.6666666666667)"></rect>
    <rect width="66.66666666666667" height="16.157894736842103" x="766.6666666666667" y="258.58771929824564" stroke="none" fill="#4945ffff" rx="8.078947368421051" transform="rotate(45, 800.0000000000001, 266.6666666666667)"></rect>
    <rect width="16.157894736842103" height="66.66666666666667" x="791.9210526315791" y="233.33333333333334" stroke="none" fill="#4945ffff" rx="8.078947368421051" transform="rotate(45, 800.0000000000001, 266.6666666666667)"></rect>
    <rect width="66.66666666666667" height="16.157894736842103" x="-33.333333333333336" y="391.92105263157896" stroke="none" fill="#203a6cff" rx="8.078947368421051" transform="rotate(45, 0, 400)"></rect>
    <rect width="16.157894736842103" height="66.66666666666667" x="-8.078947368421051" y="366.6666666666667" stroke="none" fill="#203a6cff" rx="8.078947368421051" transform="rotate(45, 0, 400)"></rect>
    <rect width="66.66666666666667" height="16.157894736842103" x="100" y="391.92105263157896" stroke="none" fill="#4945ffff" rx="8.078947368421051" transform="rotate(45, 133.33333333333334, 400)"></rect>
    <rect width="16.157894736842103" height="66.66666666666667" x="125.25438596491229" y="366.6666666666667" stroke="none" fill="#4945ffff" rx="8.078947368421051" transform="rotate(45, 133.33333333333334, 400)"></rect>
    <rect width="66.66666666666667" height="16.157894736842103" x="233.33333333333334" y="391.92105263157896" stroke="none" fill="#203a6cff" rx="8.078947368421051" transform="rotate(45, 266.6666666666667, 400)"></rect>
    <rect width="16.157894736842103" height="66.66666666666667" x="258.58771929824564" y="366.6666666666667" stroke="none" fill="#203a6cff" rx="8.078947368421051" transform="rotate(45, 266.6666666666667, 400)"></rect>
    <rect width="66.66666666666667" height="16.157894736842103" x="366.6666666666667" y="391.92105263157896" stroke="none" fill="#4945ffff" rx="8.078947368421051" transform="rotate(45, 400, 400)"></rect>
    <rect width="16.157894736842103" height="66.66666666666667" x="391.92105263157896" y="366.6666666666667" stroke="none" fill="#4945ffff" rx="8.078947368421051" transform="rotate(45, 400, 400)"></rect>
    <rect width="66.66666666666667" height="16.157894736842103" x="500.00000000000006" y="391.92105263157896" stroke="none" fill="#203a6cff" rx="8.078947368421051" transform="rotate(45, 533.3333333333334, 400)"></rect>
    <rect width="16.157894736842103" height="66.66666666666667" x="525.2543859649123" y="366.6666666666667" stroke="none" fill="#203a6cff" rx="8.078947368421051" transform="rotate(45, 533.3333333333334, 400)"></rect>
    <rect width="66.66666666666667" height="16.157894736842103" x="633.3333333333334" y="391.92105263157896" stroke="none" fill="#4945ffff" rx="8.078947368421051" transform="rotate(45, 666.6666666666667, 400)"></rect>
    <rect width="16.157894736842103" height="66.66666666666667" x="658.5877192982457" y="366.6666666666667" stroke="none" fill="#4945ffff" rx="8.078947368421051" transform="rotate(45, 666.6666666666667, 400)"></rect>
    <rect width="66.66666666666667" height="16.157894736842103" x="766.6666666666667" y="391.92105263157896" stroke="none" fill="#203a6cff" rx="8.078947368421051" transform="rotate(45, 800.0000000000001, 400)"></rect>
    <rect width="16.157894736842103" height="66.66666666666667" x="791.9210526315791" y="366.6666666666667" stroke="none" fill="#203a6cff" rx="8.078947368421051" transform="rotate(45, 800.0000000000001, 400)"></rect>
    <rect width="66.66666666666667" height="16.157894736842103" x="-33.333333333333336" y="525.2543859649123" stroke="none" fill="#4945ffff" rx="8.078947368421051" transform="rotate(45, 0, 533.3333333333334)"></rect>
    <rect width="16.157894736842103" height="66.66666666666667" x="-8.078947368421051" y="500.00000000000006" stroke="none" fill="#4945ffff" rx="8.078947368421051" transform="rotate(45, 0, 533.3333333333334)"></rect>
    <rect width="66.66666666666667" height="16.157894736842103" x="100" y="525.2543859649123" stroke="none" fill="#203a6cff" rx="8.078947368421051" transform="rotate(45, 133.33333333333334, 533.3333333333334)"></rect>
    <rect width="16.157894736842103" height="66.66666666666667" x="125.25438596491229" y="500.00000000000006" stroke="none" fill="#203a6cff" rx="8.078947368421051" transform="rotate(45, 133.33333333333334, 533.3333333333334)"></rect>
    <rect width="66.66666666666667" height="16.157894736842103" x="233.33333333333334" y="525.2543859649123" stroke="none" fill="#4945ffff" rx="8.078947368421051" transform="rotate(45, 266.6666666666667, 533.3333333333334)"></rect>
    <rect width="16.157894736842103" height="66.66666666666667" x="258.58771929824564" y="500.00000000000006" stroke="none" fill="#4945ffff" rx="8.078947368421051" transform="rotate(45, 266.6666666666667, 533.3333333333334)"></rect>
    <rect width="66.66666666666667" height="16.157894736842103" x="366.6666666666667" y="525.2543859649123" stroke="none" fill="#203a6cff" rx="8.078947368421051" transform="rotate(45, 400, 533.3333333333334)"></rect>
    <rect width="16.157894736842103" height="66.66666666666667" x="391.92105263157896" y="500.00000000000006" stroke="none" fill="#203a6cff" rx="8.078947368421051" transform="rotate(45, 400, 533.3333333333334)"></rect>
    <rect width="66.66666666666667" height="16.157894736842103" x="500.00000000000006" y="525.2543859649123" stroke="none" fill="#4945ffff" rx="8.078947368421051" transform="rotate(45, 533.3333333333334, 533.3333333333334)"></rect>
    <rect width="16.157894736842103" height="66.66666666666667" x="525.2543859649123" y="500.00000000000006" stroke="none" fill="#4945ffff" rx="8.078947368421051" transform="rotate(45, 533.3333333333334, 533.3333333333334)"></rect>
    <rect width="66.66666666666667" height="16.157894736842103" x="633.3333333333334" y="525.2543859649123" stroke="none" fill="#203a6cff" rx="8.078947368421051" transform="rotate(45, 666.6666666666667, 533.3333333333334)"></rect>
    <rect width="16.157894736842103" height="66.66666666666667" x="658.5877192982457" y="500.00000000000006" stroke="none" fill="#203a6cff" rx="8.078947368421051" transform="rotate(45, 666.6666666666667, 533.3333333333334)"></rect>
    <rect width="66.66666666666667" height="16.157894736842103" x="766.6666666666667" y="525.2543859649123" stroke="none" fill="#4945ffff" rx="8.078947368421051" transform="rotate(45, 800.0000000000001, 533.3333333333334)"></rect>
    <rect width="16.157894736842103" height="66.66666666666667" x="791.9210526315791" y="500.00000000000006" stroke="none" fill="#4945ffff" rx="8.078947368421051" transform="rotate(45, 800.0000000000001, 533.3333333333334)"></rect>
    <rect width="66.66666666666667" height="16.157894736842103" x="-33.333333333333336" y="658.5877192982457" stroke="none" fill="#203a6cff" rx="8.078947368421051" transform="rotate(45, 0, 666.6666666666667)"></rect>
    <rect width="16.157894736842103" height="66.66666666666667" x="-8.078947368421051" y="633.3333333333334" stroke="none" fill="#203a6cff" rx="8.078947368421051" transform="rotate(45, 0, 666.6666666666667)"></rect>
    <rect width="66.66666666666667" height="16.157894736842103" x="100" y="658.5877192982457" stroke="none" fill="#4945ffff" rx="8.078947368421051" transform="rotate(45, 133.33333333333334, 666.6666666666667)"></rect>
    <rect width="16.157894736842103" height="66.66666666666667" x="125.25438596491229" y="633.3333333333334" stroke="none" fill="#4945ffff" rx="8.078947368421051" transform="rotate(45, 133.33333333333334, 666.6666666666667)"></rect>
    <rect width="66.66666666666667" height="16.157894736842103" x="233.33333333333334" y="658.5877192982457" stroke="none" fill="#203a6cff" rx="8.078947368421051" transform="rotate(45, 266.6666666666667, 666.6666666666667)"></rect>
    <rect width="16.157894736842103" height="66.66666666666667" x="258.58771929824564" y="633.3333333333334" stroke="none" fill="#203a6cff" rx="8.078947368421051" transform="rotate(45, 266.6666666666667, 666.6666666666667)"></rect>
    <rect width="66.66666666666667" height="16.157894736842103" x="366.6666666666667" y="658.5877192982457" stroke="none" fill="#4945ffff" rx="8.078947368421051" transform="rotate(45, 400, 666.6666666666667)"></rect>
    <rect width="16.157894736842103" height="66.66666666666667" x="391.92105263157896" y="633.3333333333334" stroke="none" fill="#4945ffff" rx="8.078947368421051" transform="rotate(45, 400, 666.6666666666667)"></rect>
    <rect width="66.66666666666667" height="16.157894736842103" x="500.00000000000006" y="658.5877192982457" stroke="none" fill="#203a6cff" rx="8.078947368421051" transform="rotate(45, 533.3333333333334, 666.6666666666667)"></rect>
    <rect width="16.157894736842103" height="66.66666666666667" x="525.2543859649123" y="633.3333333333334" stroke="none" fill="#203a6cff" rx="8.078947368421051" transform="rotate(45, 533.3333333333334, 666.6666666666667)"></rect>
    <rect width="66.66666666666667" height="16.157894736842103" x="633.3333333333334" y="658.5877192982457" stroke="none" fill="#4945ffff" rx="8.078947368421051" transform="rotate(45, 666.6666666666667, 666.6666666666667)"></rect>
    <rect width="16.157894736842103" height="66.66666666666667" x="658.5877192982457" y="633.3333333333334" stroke="none" fill="#4945ffff" rx="8.078947368421051" transform="rotate(45, 666.6666666666667, 666.6666666666667)"></rect>
    <rect width="66.66666666666667" height="16.157894736842103" x="766.6666666666667" y="658.5877192982457" stroke="none" fill="#203a6cff" rx="8.078947368421051" transform="rotate(45, 800.0000000000001, 666.6666666666667)"></rect>
    <rect width="16.157894736842103" height="66.66666666666667" x="791.9210526315791" y="633.3333333333334" stroke="none" fill="#203a6cff" rx="8.078947368421051" transform="rotate(45, 800.0000000000001, 666.6666666666667)"></rect>
    <rect width="66.66666666666667" height="16.157894736842103" x="-33.333333333333336" y="791.9210526315791" stroke="none" fill="#4945ffff" rx="8.078947368421051" transform="rotate(45, 0, 800.0000000000001)"></rect>
    <rect width="16.157894736842103" height="66.66666666666667" x="-8.078947368421051" y="766.6666666666667" stroke="none" fill="#4945ffff" rx="8.078947368421051" transform="rotate(45, 0, 800.0000000000001)"></rect>
    <rect width="66.66666666666667" height="16.157894736842103" x="100" y="791.9210526315791" stroke="none" fill="#203a6cff" rx="8.078947368421051" transform="rotate(45, 133.33333333333334, 800.0000000000001)"></rect>
    <rect width="16.157894736842103" height="66.66666666666667" x="125.25438596491229" y="766.6666666666667" stroke="none" fill="#203a6cff" rx="8.078947368421051" transform="rotate(45, 133.33333333333334, 800.0000000000001)"></rect>
    <rect width="66.66666666666667" height="16.157894736842103" x="233.33333333333334" y="791.9210526315791" stroke="none" fill="#4945ffff" rx="8.078947368421051" transform="rotate(45, 266.6666666666667, 800.0000000000001)"></rect>
    <rect width="16.157894736842103" height="66.66666666666667" x="258.58771929824564" y="766.6666666666667" stroke="none" fill="#4945ffff" rx="8.078947368421051" transform="rotate(45, 266.6666666666667, 800.0000000000001)"></rect>
    <rect width="66.66666666666667" height="16.157894736842103" x="366.6666666666667" y="791.9210526315791" stroke="none" fill="#203a6cff" rx="8.078947368421051" transform="rotate(45, 400, 800.0000000000001)"></rect>
    <rect width="16.157894736842103" height="66.66666666666667" x="391.92105263157896" y="766.6666666666667" stroke="none" fill="#203a6cff" rx="8.078947368421051" transform="rotate(45, 400, 800.0000000000001)"></rect>
    <rect width="66.66666666666667" height="16.157894736842103" x="500.00000000000006" y="791.9210526315791" stroke="none" fill="#4945ffff" rx="8.078947368421051" transform="rotate(45, 533.3333333333334, 800.0000000000001)"></rect>
    <rect width="16.157894736842103" height="66.66666666666667" x="525.2543859649123" y="766.6666666666667" stroke="none" fill="#4945ffff" rx="8.078947368421051" transform="rotate(45, 533.3333333333334, 800.0000000000001)"></rect>
    <rect width="66.66666666666667" height="16.157894736842103" x="633.3333333333334" y="791.9210526315791" stroke="none" fill="#203a6cff" rx="8.078947368421051" transform="rotate(45, 666.6666666666667, 800.0000000000001)"></rect>
    <rect width="16.157894736842103" height="66.66666666666667" x="658.5877192982457" y="766.6666666666667" stroke="none" fill="#203a6cff" rx="8.078947368421051" transform="rotate(45, 666.6666666666667, 800.0000000000001)"></rect>
    <rect width="66.66666666666667" height="16.157894736842103" x="766.6666666666667" y="791.9210526315791" stroke="none" fill="#4945ffff" rx="8.078947368421051" transform="rotate(45, 800.0000000000001, 800.0000000000001)"></rect>
    <rect width="16.157894736842103" height="66.66666666666667" x="791.9210526315791" y="766.6666666666667" stroke="none" fill="#4945ffff" rx="8.078947368421051" transform="rotate(45, 800.0000000000001, 800.0000000000001)"></rect>
  </g>
</svg>